<svg width="39" height="40" viewBox="0 0 39 40" fill="none" xmlns="http://www.w3.org/2000/svg">
<path d="M19.5 11.6944C17.8573 11.6944 16.2515 12.1816 14.8857 13.0942C13.5198 14.0068 12.4553 15.304 11.8267 16.8216C11.198 18.3392 11.0336 20.0092 11.354 21.6203C11.6745 23.2315 12.4655 24.7114 13.6271 25.8729C14.7886 27.0345 16.2685 27.8255 17.8797 28.146C19.4908 28.4664 21.1608 28.302 22.6784 27.6733C24.196 27.0447 25.4932 25.9802 26.4058 24.6143C27.3184 23.2485 27.8056 21.6427 27.8056 20C27.8031 17.798 26.9272 15.6869 25.3701 14.1299C23.8131 12.5728 21.702 11.6969 19.5 11.6944ZM19.5 23.9722C18.7144 23.9722 17.9464 23.7393 17.2932 23.3028C16.6399 22.8663 16.1308 22.2459 15.8301 21.5201C15.5295 20.7943 15.4508 19.9956 15.6041 19.2251C15.7574 18.4545 16.1357 17.7467 16.6912 17.1912C17.2467 16.6357 17.9545 16.2574 18.7251 16.1041C19.4956 15.9508 20.2943 16.0295 21.0201 16.3301C21.7459 16.6308 22.3663 17.1399 22.8028 17.7932C23.2393 18.4464 23.4722 19.2144 23.4722 20C23.471 21.0531 23.0521 22.0628 22.3075 22.8075C21.5628 23.5521 20.5531 23.971 19.5 23.9722ZM28.1667 0.5H10.8333C7.96115 0.503255 5.20754 1.64567 3.17661 3.67661C1.14567 5.70754 0.00325534 8.46115 0 11.3333V28.6667C0.00325534 31.5388 1.14567 34.2925 3.17661 36.3234C5.20754 38.3543 7.96115 39.4967 10.8333 39.5H28.1667C31.0388 39.4967 33.7925 38.3543 35.8234 36.3234C37.8543 34.2925 38.9967 31.5388 39 28.6667V11.3333C38.9967 8.46115 37.8543 5.70754 35.8234 3.67661C33.7925 1.64567 31.0388 0.503255 28.1667 0.5ZM34.6667 28.6667C34.6647 30.39 33.9793 32.0422 32.7607 33.2607C31.5422 34.4793 29.89 35.1647 28.1667 35.1667H10.8333C9.11002 35.1647 7.45785 34.4793 6.23928 33.2607C5.02072 32.0422 4.33527 30.39 4.33333 28.6667V11.3333C4.33527 9.61002 5.02072 7.95785 6.23928 6.73928C7.45785 5.52072 9.11002 4.83527 10.8333 4.83333H28.1667C29.89 4.83527 31.5422 5.52072 32.7607 6.73928C33.9793 7.95785 34.6647 9.61002 34.6667 11.3333V28.6667ZM31.7778 10.6111C31.7778 11.1825 31.6083 11.741 31.2909 12.2161C30.9735 12.6912 30.5223 13.0614 29.9944 13.2801C29.4665 13.4987 28.8857 13.556 28.3253 13.4445C27.7649 13.333 27.2502 13.0579 26.8461 12.6539C26.4421 12.2498 26.167 11.7351 26.0555 11.1747C25.944 10.6143 26.0012 10.0335 26.2199 9.50558C26.4386 8.97771 26.8088 8.52652 27.2839 8.20909C27.759 7.89165 28.3175 7.72222 28.8889 7.72222C29.6548 7.7231 30.3891 8.02774 30.9307 8.56933C31.4723 9.11091 31.7769 9.8452 31.7778 10.6111Z" fill="#FFF985"/>
</svg>
