<svg width="44" height="36" viewBox="0 0 44 36" fill="none" xmlns="http://www.w3.org/2000/svg">
<path d="M4.22222 31.2857L15.3333 18M39.7778 31.2857L28.6667 18M2 9.14286L18.0556 19.8082C19.4811 20.7552 20.1938 21.2289 20.9642 21.4127C21.6451 21.5754 22.3549 21.5754 23.0358 21.4127C23.8062 21.2289 24.5189 20.7552 25.9444 19.8082L42 9.14286M9.11111 33.5H34.8889C37.378 33.5 38.6227 33.5 39.5733 33.0173C40.4096 32.5928 41.0896 31.9152 41.5156 31.082C42 30.1347 42 28.8945 42 26.4143V9.58571C42 7.10549 42 5.86536 41.5156 4.91804C41.0896 4.08474 40.4096 3.40726 39.5733 2.98269C38.6227 2.5 37.378 2.5 34.8889 2.5H9.11111C6.622 2.5 5.37742 2.5 4.42671 2.98269C3.59042 3.40726 2.91051 4.08474 2.48442 4.91804C2 5.86536 2 7.10547 2 9.58571V26.4143C2 28.8945 2 30.1347 2.48442 31.082C2.91051 31.9152 3.59042 32.5928 4.42671 33.0173C5.37742 33.5 6.62198 33.5 9.11111 33.5Z" stroke="#FFF985" stroke-width="4" stroke-linecap="round" stroke-linejoin="round"/>
</svg>
