<svg width="41" height="42" viewBox="0 0 41 42" fill="none" xmlns="http://www.w3.org/2000/svg">
<path fill-rule="evenodd" clip-rule="evenodd" d="M35.0265 6.4582C31.1723 2.61806 26.0465 0.502158 20.5856 0.5C9.3335 0.5 0.175673 9.61335 0.17117 20.8152C0.169669 24.3958 1.10974 27.8911 2.8961 30.972L0 41.5L10.822 38.6749C13.8036 40.2933 17.1608 41.1463 20.5774 41.1477H20.5858C31.8368 41.1477 40.9954 32.0332 41 20.8314C41.0022 15.4028 38.8808 10.2983 35.0265 6.4582ZM20.5858 37.7164H20.5789C17.5343 37.7152 14.548 36.9012 11.943 35.3627L11.3233 34.9967L4.90149 36.6732L6.61563 30.4419L6.21214 29.8031C4.51368 27.1145 3.61658 24.007 3.61791 20.8164C3.62164 11.5059 11.2333 3.93131 20.5926 3.93131C25.1245 3.93303 29.3848 5.6918 32.5883 8.88359C35.7918 12.0754 37.555 16.318 37.5533 20.83C37.5494 30.1412 29.9378 37.7164 20.5858 37.7164ZM29.8929 25.0695C29.3828 24.8155 26.875 23.5873 26.4074 23.4179C25.9398 23.2485 25.5998 23.1638 25.2597 23.6721C24.9197 24.1802 23.9422 25.3237 23.6445 25.6624C23.3471 26.0013 23.0495 26.0436 22.5394 25.7895C22.0294 25.5354 20.3858 24.9994 18.4375 23.2699C16.9212 21.924 15.8974 20.2614 15.5998 19.7533C15.3023 19.245 15.5682 18.9703 15.8235 18.7172C16.053 18.4898 16.3336 18.1243 16.5887 17.8279C16.8437 17.5314 16.9287 17.3197 17.0987 16.9809C17.2687 16.6421 17.1837 16.3456 17.0562 16.0916C16.9287 15.8375 15.9086 13.3388 15.4835 12.3224C15.0695 11.3325 14.6489 11.4665 14.3358 11.451C14.0386 11.4363 13.6982 11.4331 13.3582 11.4331C13.0182 11.4331 12.4656 11.5602 11.998 12.0683C11.5305 12.5766 10.2128 13.8047 10.2128 16.3033C10.2128 18.8019 12.0405 21.2158 12.2956 21.5546C12.5506 21.8934 15.8924 27.021 21.0092 29.2198C22.2262 29.7428 23.1763 30.0551 23.9171 30.2892C25.1391 30.6755 26.2511 30.621 27.13 30.4903C28.11 30.3446 30.1478 29.2622 30.5729 28.0764C30.998 26.8906 30.998 25.8742 30.8705 25.6625C30.743 25.4507 30.4029 25.3237 29.8929 25.0695Z" fill="#FFF985"/>
</svg>
